<?xml version="1.0" encoding="UTF-8"?> <svg xmlns="http://www.w3.org/2000/svg" width="74" height="74" viewBox="0 0 74 74"> <path d="M60.125 0l-9.25 9.25L41.625 0H0v9.25h41.625l9.25 9.25 9.25-9.25H74V0H60.125zm-9.25 18.5l-9.25 9.25-9.25-9.25H0v9.25h32.375l9.25 9.25 9.25-9.25H74V18.5H50.875zM41.625 37l-9.25 9.25-9.25-9.25H0v9.25h23.125l9.25 9.25 9.25-9.25H74V37H41.625zm-9.25 18.5l-9.25 9.25-9.25-9.25H0v9.25h13.875l9.25 9.25 9.25-9.25H74V55.5H32.375z" fill="#525DDC" fill-rule="nonzero"></path> </svg> 